<svg xmlns="http://www.w3.org/2000/svg" width="800" height="800" viewBox="0 0 64 64">
  <g fill="none" fill-rule="evenodd">
    <path fill="#E9EFFA" d="M29.16 49H56a3 3 0 0 0 3-3V12a3 3 0 0 0-3-3H8a3 3 0 0 0-3 3v34a3 3 0 0 0 3 3h7a2 2 0 0 1 2 2v8l10.141-9.22a3.003 3.003 0 0 1 2.02-.78"/>
    <path stroke="#99A5B7" stroke-linecap="round" stroke-linejoin="round" stroke-width="2" d="M29.16 49H56a3 3 0 0 0 3-3V12a3 3 0 0 0-3-3H8a3 3 0 0 0-3 3v34a3 3 0 0 0 3 3h7a2 2 0 0 1 2 2v8l10.141-9.22a3.003 3.003 0 0 1 2.02-.78Z"/>
    <path stroke="#53647C" stroke-linecap="round" stroke-linejoin="round" stroke-width="2" d="m13 35 4-12m0 12 4-12m-10 8h11m-10-4h11m24-4v6m-4 6 4-6 4 6m-10-8 6 2 6-2m-18 2a2 2 0 1 1-4.001-.001A2 2 0 0 1 35 29Z"/>
    <path stroke="#53647C" stroke-linecap="round" stroke-linejoin="round" stroke-width="2" d="M33 31a4 4 0 0 0 0-8 6 6 0 0 0-6 6c0 3.313 2.375 6 6 6 1.388 0 2.739-.586 3.878-1.31"/>
  </g>
</svg>
